<mxfile host="app.diagrams.net" modified="2021-11-08T05:57:11.714Z" agent="5.0 (Windows NT 10.0; Win64; x64) AppleWebKit/537.36 (KHTML, like Gecko) Chrome/95.0.4638.69 Safari/537.36" etag="19IRgV0b6R-CLvEUZKxs" version="15.5.8" type="github">
  <diagram id="Eez2vNiQA8f-KDP3fJMo" name="Page-1">
    <mxGraphModel dx="865" dy="483" grid="1" gridSize="10" guides="1" tooltips="1" connect="1" arrows="1" fold="1" page="1" pageScale="1" pageWidth="850" pageHeight="1100" math="0" shadow="0">
      <root>
        <mxCell id="0" />
        <mxCell id="1" parent="0" />
        <mxCell id="1Vi4NwJB7WIJ8T-tBp-d-27" style="edgeStyle=orthogonalEdgeStyle;rounded=0;orthogonalLoop=1;jettySize=auto;html=1;entryX=0.1;entryY=0.015;entryDx=0;entryDy=0;entryPerimeter=0;dashed=1;endArrow=block;endFill=0;" edge="1" parent="1" source="1Vi4NwJB7WIJ8T-tBp-d-1" target="1Vi4NwJB7WIJ8T-tBp-d-18">
          <mxGeometry relative="1" as="geometry">
            <Array as="points">
              <mxPoint x="240" y="440" />
              <mxPoint x="694" y="440" />
            </Array>
          </mxGeometry>
        </mxCell>
        <mxCell id="1Vi4NwJB7WIJ8T-tBp-d-1" value="&lt;b&gt;NameSortStrategy&lt;/b&gt;" style="swimlane;fontStyle=0;align=center;verticalAlign=top;childLayout=stackLayout;horizontal=1;startSize=30;horizontalStack=0;resizeParent=1;resizeParentMax=0;resizeLast=0;collapsible=0;marginBottom=0;html=1;" vertex="1" parent="1">
          <mxGeometry x="120" y="240" width="240" height="58" as="geometry" />
        </mxCell>
        <mxCell id="1Vi4NwJB7WIJ8T-tBp-d-6" value="" style="line;strokeWidth=1;fillColor=none;align=left;verticalAlign=middle;spacingTop=-1;spacingLeft=3;spacingRight=3;rotatable=0;labelPosition=right;points=[];portConstraint=eastwest;" vertex="1" parent="1Vi4NwJB7WIJ8T-tBp-d-1">
          <mxGeometry y="30" width="240" height="8" as="geometry" />
        </mxCell>
        <mxCell id="1Vi4NwJB7WIJ8T-tBp-d-8" value="+customSort(People: List&amp;lt;Person&amp;gt;): void" style="text;html=1;strokeColor=none;fillColor=none;align=left;verticalAlign=middle;spacingLeft=4;spacingRight=4;overflow=hidden;rotatable=0;points=[[0,0.5],[1,0.5]];portConstraint=eastwest;" vertex="1" parent="1Vi4NwJB7WIJ8T-tBp-d-1">
          <mxGeometry y="38" width="240" height="20" as="geometry" />
        </mxCell>
        <mxCell id="1Vi4NwJB7WIJ8T-tBp-d-28" style="edgeStyle=orthogonalEdgeStyle;rounded=0;orthogonalLoop=1;jettySize=auto;html=1;entryX=0.25;entryY=0;entryDx=0;entryDy=0;dashed=1;endArrow=block;endFill=0;" edge="1" parent="1" source="1Vi4NwJB7WIJ8T-tBp-d-9" target="1Vi4NwJB7WIJ8T-tBp-d-18">
          <mxGeometry relative="1" as="geometry" />
        </mxCell>
        <mxCell id="1Vi4NwJB7WIJ8T-tBp-d-9" value="&lt;b&gt;AgeSortStrategy&lt;/b&gt;" style="swimlane;fontStyle=0;align=center;verticalAlign=top;childLayout=stackLayout;horizontal=1;startSize=30;horizontalStack=0;resizeParent=1;resizeParentMax=0;resizeLast=0;collapsible=0;marginBottom=0;html=1;" vertex="1" parent="1">
          <mxGeometry x="480" y="240" width="240" height="58" as="geometry" />
        </mxCell>
        <mxCell id="1Vi4NwJB7WIJ8T-tBp-d-10" value="" style="line;strokeWidth=1;fillColor=none;align=left;verticalAlign=middle;spacingTop=-1;spacingLeft=3;spacingRight=3;rotatable=0;labelPosition=right;points=[];portConstraint=eastwest;" vertex="1" parent="1Vi4NwJB7WIJ8T-tBp-d-9">
          <mxGeometry y="30" width="240" height="8" as="geometry" />
        </mxCell>
        <mxCell id="1Vi4NwJB7WIJ8T-tBp-d-11" value="+customSort(People: List&amp;lt;Person&amp;gt;): void" style="text;html=1;strokeColor=none;fillColor=none;align=left;verticalAlign=middle;spacingLeft=4;spacingRight=4;overflow=hidden;rotatable=0;points=[[0,0.5],[1,0.5]];portConstraint=eastwest;" vertex="1" parent="1Vi4NwJB7WIJ8T-tBp-d-9">
          <mxGeometry y="38" width="240" height="20" as="geometry" />
        </mxCell>
        <mxCell id="1Vi4NwJB7WIJ8T-tBp-d-29" style="edgeStyle=orthogonalEdgeStyle;rounded=0;orthogonalLoop=1;jettySize=auto;html=1;entryX=0.75;entryY=0;entryDx=0;entryDy=0;dashed=1;endArrow=block;endFill=0;" edge="1" parent="1" source="1Vi4NwJB7WIJ8T-tBp-d-12" target="1Vi4NwJB7WIJ8T-tBp-d-18">
          <mxGeometry relative="1" as="geometry" />
        </mxCell>
        <mxCell id="1Vi4NwJB7WIJ8T-tBp-d-12" value="&lt;b&gt;HeightSortStrategy&lt;/b&gt;" style="swimlane;fontStyle=0;align=center;verticalAlign=top;childLayout=stackLayout;horizontal=1;startSize=30;horizontalStack=0;resizeParent=1;resizeParentMax=0;resizeLast=0;collapsible=0;marginBottom=0;html=1;" vertex="1" parent="1">
          <mxGeometry x="840" y="240" width="240" height="58" as="geometry" />
        </mxCell>
        <mxCell id="1Vi4NwJB7WIJ8T-tBp-d-13" value="" style="line;strokeWidth=1;fillColor=none;align=left;verticalAlign=middle;spacingTop=-1;spacingLeft=3;spacingRight=3;rotatable=0;labelPosition=right;points=[];portConstraint=eastwest;" vertex="1" parent="1Vi4NwJB7WIJ8T-tBp-d-12">
          <mxGeometry y="30" width="240" height="8" as="geometry" />
        </mxCell>
        <mxCell id="1Vi4NwJB7WIJ8T-tBp-d-14" value="+customSort(People: List&amp;lt;Person&amp;gt;): void" style="text;html=1;strokeColor=none;fillColor=none;align=left;verticalAlign=middle;spacingLeft=4;spacingRight=4;overflow=hidden;rotatable=0;points=[[0,0.5],[1,0.5]];portConstraint=eastwest;" vertex="1" parent="1Vi4NwJB7WIJ8T-tBp-d-12">
          <mxGeometry y="38" width="240" height="20" as="geometry" />
        </mxCell>
        <mxCell id="1Vi4NwJB7WIJ8T-tBp-d-30" style="edgeStyle=orthogonalEdgeStyle;rounded=0;orthogonalLoop=1;jettySize=auto;html=1;entryX=0.933;entryY=-0.032;entryDx=0;entryDy=0;entryPerimeter=0;dashed=1;endArrow=block;endFill=0;" edge="1" parent="1" source="1Vi4NwJB7WIJ8T-tBp-d-15" target="1Vi4NwJB7WIJ8T-tBp-d-18">
          <mxGeometry relative="1" as="geometry">
            <Array as="points">
              <mxPoint x="1320" y="440" />
              <mxPoint x="894" y="440" />
            </Array>
          </mxGeometry>
        </mxCell>
        <mxCell id="1Vi4NwJB7WIJ8T-tBp-d-15" value="&lt;b&gt;WeightSortStrategy&lt;/b&gt;" style="swimlane;fontStyle=0;align=center;verticalAlign=top;childLayout=stackLayout;horizontal=1;startSize=30;horizontalStack=0;resizeParent=1;resizeParentMax=0;resizeLast=0;collapsible=0;marginBottom=0;html=1;" vertex="1" parent="1">
          <mxGeometry x="1200" y="240" width="240" height="58" as="geometry" />
        </mxCell>
        <mxCell id="1Vi4NwJB7WIJ8T-tBp-d-16" value="" style="line;strokeWidth=1;fillColor=none;align=left;verticalAlign=middle;spacingTop=-1;spacingLeft=3;spacingRight=3;rotatable=0;labelPosition=right;points=[];portConstraint=eastwest;" vertex="1" parent="1Vi4NwJB7WIJ8T-tBp-d-15">
          <mxGeometry y="30" width="240" height="8" as="geometry" />
        </mxCell>
        <mxCell id="1Vi4NwJB7WIJ8T-tBp-d-17" value="+customSort(People: List&amp;lt;Person&amp;gt;): void" style="text;html=1;strokeColor=none;fillColor=none;align=left;verticalAlign=middle;spacingLeft=4;spacingRight=4;overflow=hidden;rotatable=0;points=[[0,0.5],[1,0.5]];portConstraint=eastwest;" vertex="1" parent="1Vi4NwJB7WIJ8T-tBp-d-15">
          <mxGeometry y="38" width="240" height="20" as="geometry" />
        </mxCell>
        <mxCell id="1Vi4NwJB7WIJ8T-tBp-d-18" value="&amp;lt;&amp;lt;interface&amp;gt;&amp;gt;&lt;br&gt;&lt;b&gt;SortStrategy&lt;/b&gt;" style="swimlane;fontStyle=0;align=center;verticalAlign=top;childLayout=stackLayout;horizontal=1;startSize=40;horizontalStack=0;resizeParent=1;resizeParentMax=0;resizeLast=0;collapsible=0;marginBottom=0;html=1;" vertex="1" parent="1">
          <mxGeometry x="670" y="470" width="240" height="68" as="geometry" />
        </mxCell>
        <mxCell id="1Vi4NwJB7WIJ8T-tBp-d-23" value="" style="line;strokeWidth=1;fillColor=none;align=left;verticalAlign=middle;spacingTop=-1;spacingLeft=3;spacingRight=3;rotatable=0;labelPosition=right;points=[];portConstraint=eastwest;" vertex="1" parent="1Vi4NwJB7WIJ8T-tBp-d-18">
          <mxGeometry y="40" width="240" height="8" as="geometry" />
        </mxCell>
        <mxCell id="1Vi4NwJB7WIJ8T-tBp-d-25" value="+customSort(People: List&amp;lt;Person&amp;gt;): void" style="text;html=1;strokeColor=none;fillColor=none;align=left;verticalAlign=middle;spacingLeft=4;spacingRight=4;overflow=hidden;rotatable=0;points=[[0,0.5],[1,0.5]];portConstraint=eastwest;" vertex="1" parent="1Vi4NwJB7WIJ8T-tBp-d-18">
          <mxGeometry y="48" width="240" height="20" as="geometry" />
        </mxCell>
        <mxCell id="1Vi4NwJB7WIJ8T-tBp-d-39" style="edgeStyle=orthogonalEdgeStyle;rounded=0;orthogonalLoop=1;jettySize=auto;html=1;endArrow=open;endFill=0;startArrow=diamond;startFill=0;" edge="1" parent="1" source="1Vi4NwJB7WIJ8T-tBp-d-31" target="1Vi4NwJB7WIJ8T-tBp-d-18">
          <mxGeometry relative="1" as="geometry" />
        </mxCell>
        <mxCell id="1Vi4NwJB7WIJ8T-tBp-d-46" style="edgeStyle=orthogonalEdgeStyle;rounded=0;orthogonalLoop=1;jettySize=auto;html=1;entryX=0.5;entryY=0;entryDx=0;entryDy=0;startArrow=diamond;startFill=0;endArrow=open;endFill=0;" edge="1" parent="1" source="1Vi4NwJB7WIJ8T-tBp-d-31" target="1Vi4NwJB7WIJ8T-tBp-d-42">
          <mxGeometry relative="1" as="geometry" />
        </mxCell>
        <mxCell id="1Vi4NwJB7WIJ8T-tBp-d-31" value="&lt;b&gt;People&lt;/b&gt;" style="swimlane;fontStyle=0;align=center;verticalAlign=top;childLayout=stackLayout;horizontal=1;startSize=30;horizontalStack=0;resizeParent=1;resizeParentMax=0;resizeLast=0;collapsible=0;marginBottom=0;html=1;" vertex="1" parent="1">
          <mxGeometry x="640" y="670" width="300" height="160" as="geometry" />
        </mxCell>
        <mxCell id="1Vi4NwJB7WIJ8T-tBp-d-33" value="-members: List&amp;lt;Person&amp;gt;&lt;br&gt;-sortStrategy: SortStrategy" style="text;html=1;strokeColor=none;fillColor=none;align=left;verticalAlign=middle;spacingLeft=4;spacingRight=4;overflow=hidden;rotatable=0;points=[[0,0.5],[1,0.5]];portConstraint=eastwest;" vertex="1" parent="1Vi4NwJB7WIJ8T-tBp-d-31">
          <mxGeometry y="30" width="300" height="50" as="geometry" />
        </mxCell>
        <mxCell id="1Vi4NwJB7WIJ8T-tBp-d-36" value="" style="line;strokeWidth=1;fillColor=none;align=left;verticalAlign=middle;spacingTop=-1;spacingLeft=3;spacingRight=3;rotatable=0;labelPosition=right;points=[];portConstraint=eastwest;" vertex="1" parent="1Vi4NwJB7WIJ8T-tBp-d-31">
          <mxGeometry y="80" width="300" height="8" as="geometry" />
        </mxCell>
        <mxCell id="1Vi4NwJB7WIJ8T-tBp-d-38" value="+People()&lt;br&gt;+setSortStrategy(sortStrategy: SortStrategy): void&lt;br&gt;+addMember(p: Person): void&lt;br&gt;+print(out: PrintStream): void" style="text;html=1;strokeColor=none;fillColor=none;align=left;verticalAlign=middle;spacingLeft=4;spacingRight=4;overflow=hidden;rotatable=0;points=[[0,0.5],[1,0.5]];portConstraint=eastwest;" vertex="1" parent="1Vi4NwJB7WIJ8T-tBp-d-31">
          <mxGeometry y="88" width="300" height="72" as="geometry" />
        </mxCell>
        <mxCell id="1Vi4NwJB7WIJ8T-tBp-d-40" value="-sort&lt;span style=&quot;text-align: left&quot;&gt;Strategy&lt;/span&gt;" style="text;html=1;align=center;verticalAlign=middle;resizable=0;points=[];autosize=1;strokeColor=none;fillColor=none;" vertex="1" parent="1">
          <mxGeometry x="790" y="640" width="80" height="20" as="geometry" />
        </mxCell>
        <mxCell id="1Vi4NwJB7WIJ8T-tBp-d-41" value="1..1" style="text;html=1;align=center;verticalAlign=middle;resizable=0;points=[];autosize=1;strokeColor=none;fillColor=none;" vertex="1" parent="1">
          <mxGeometry x="790" y="550" width="40" height="20" as="geometry" />
        </mxCell>
        <mxCell id="1Vi4NwJB7WIJ8T-tBp-d-42" value="&lt;b&gt;Person&lt;/b&gt;" style="swimlane;fontStyle=0;align=center;verticalAlign=top;childLayout=stackLayout;horizontal=1;startSize=30;horizontalStack=0;resizeParent=1;resizeParentMax=0;resizeLast=0;collapsible=0;marginBottom=0;html=1;" vertex="1" parent="1">
          <mxGeometry x="695" y="1000" width="190" height="240" as="geometry" />
        </mxCell>
        <mxCell id="1Vi4NwJB7WIJ8T-tBp-d-43" value="-name: String&lt;br&gt;-age: Integer&lt;br&gt;-height: Integer&lt;br&gt;-weight: Integer" style="text;html=1;strokeColor=none;fillColor=none;align=left;verticalAlign=middle;spacingLeft=4;spacingRight=4;overflow=hidden;rotatable=0;points=[[0,0.5],[1,0.5]];portConstraint=eastwest;" vertex="1" parent="1Vi4NwJB7WIJ8T-tBp-d-42">
          <mxGeometry y="30" width="190" height="70" as="geometry" />
        </mxCell>
        <mxCell id="1Vi4NwJB7WIJ8T-tBp-d-44" value="" style="line;strokeWidth=1;fillColor=none;align=left;verticalAlign=middle;spacingTop=-1;spacingLeft=3;spacingRight=3;rotatable=0;labelPosition=right;points=[];portConstraint=eastwest;" vertex="1" parent="1Vi4NwJB7WIJ8T-tBp-d-42">
          <mxGeometry y="100" width="190" height="8" as="geometry" />
        </mxCell>
        <mxCell id="1Vi4NwJB7WIJ8T-tBp-d-45" value="+getName(): String&lt;br&gt;+setName(name: String): void&lt;br&gt;+getAge(): int&lt;br&gt;+setAge(age: Integer): void&lt;br&gt;+getHeight(): int&lt;br&gt;+setHeight(height: Integer): void&lt;br&gt;+getWeight(): int&lt;br&gt;+setWeight(weight: Integer): void" style="text;html=1;strokeColor=none;fillColor=none;align=left;verticalAlign=middle;spacingLeft=4;spacingRight=4;overflow=hidden;rotatable=0;points=[[0,0.5],[1,0.5]];portConstraint=eastwest;" vertex="1" parent="1Vi4NwJB7WIJ8T-tBp-d-42">
          <mxGeometry y="108" width="190" height="132" as="geometry" />
        </mxCell>
        <mxCell id="1Vi4NwJB7WIJ8T-tBp-d-47" value="-members" style="text;html=1;align=center;verticalAlign=middle;resizable=0;points=[];autosize=1;strokeColor=none;fillColor=none;" vertex="1" parent="1">
          <mxGeometry x="720" y="840" width="70" height="20" as="geometry" />
        </mxCell>
        <mxCell id="1Vi4NwJB7WIJ8T-tBp-d-48" value="0..*" style="text;html=1;align=center;verticalAlign=middle;resizable=0;points=[];autosize=1;strokeColor=none;fillColor=none;" vertex="1" parent="1">
          <mxGeometry x="745" y="970" width="30" height="20" as="geometry" />
        </mxCell>
      </root>
    </mxGraphModel>
  </diagram>
</mxfile>
